<?xml version="1.0" encoding="UTF-8" standalone="no"?>
<svg
   xmlns:dc="http://purl.org/dc/elements/1.1/"
   xmlns:cc="http://creativecommons.org/ns#"
   xmlns:rdf="http://www.w3.org/1999/02/22-rdf-syntax-ns#"
   xmlns:svg="http://www.w3.org/2000/svg"
   xmlns="http://www.w3.org/2000/svg"
   xmlns:sodipodi="http://sodipodi.sourceforge.net/DTD/sodipodi-0.dtd"
   xmlns:inkscape="http://www.inkscape.org/namespaces/inkscape"
   id="Ebene_1"
   data-name="Ebene 1"
   viewBox="0 0 1129.874 142.98785"
   version="1.1"
   sodipodi:docname="svstudio.svg"
   width="1129.874"
   height="142.98785"
   inkscape:version="0.92.4 5da689c313, 2019-01-14">
  <metadata
     id="metadata117">
    <rdf:RDF>
      <cc:Work
         rdf:about="">
        <dc:format>image/svg+xml</dc:format>
        <dc:type
           rdf:resource="http://purl.org/dc/dcmitype/StillImage" />
        <dc:title></dc:title>
      </cc:Work>
    </rdf:RDF>
  </metadata>
  <sodipodi:namedview
     pagecolor="#ffffff"
     bordercolor="#666666"
     borderopacity="1"
     objecttolerance="10"
     gridtolerance="10"
     guidetolerance="10"
     inkscape:pageopacity="0"
     inkscape:pageshadow="2"
     inkscape:window-width="1920"
     inkscape:window-height="1055"
     id="namedview115"
     showgrid="false"
     units="px"
     fit-margin-top="10"
     fit-margin-left="10"
     fit-margin-right="10"
     fit-margin-bottom="10"
     inkscape:zoom="0.40392707"
     inkscape:cx="825.71832"
     inkscape:cy="79.692074"
     inkscape:window-x="1920"
     inkscape:window-y="0"
     inkscape:window-maximized="1"
     inkscape:current-layer="Ebene_1">
    <inkscape:grid
       type="xygrid"
       id="grid940"
       originx="20.233933"
       originy="6.7871086e-06" />
  </sodipodi:namedview>
  <defs
     id="defs4">
    <style
       id="style2">.cls-1,.cls-3{fill:#ccc;}.cls-2{fill:#79d825;}.cls-3{font-size:72px;font-family:SofiaPro-Bold, Sofia Pro;font-weight:700;}.cls-4{letter-spacing:-0.01em;}</style>
  </defs>
  <path
     class="cls-1"
     d="m 174.03393,88.097853 h 14.44 c 0.11,5.2 5.1,9.450001 11.74,9.450001 6.45,0 10.71,-3.320001 10.71,-8.410001 0,-3.95 -2.91,-6.75 -9,-8.62 l -8.73,-2.5 c -15.69,-4.15 -18.49,-13.61 -18.49,-20.05 0,-12.78 11,-21.3 24.72,-21.3 13.51,0 23.9,8.21 23.9,21.82 h -14.48 c 0,-5.09 -3.53,-9 -9.77,-9 -5.61,0 -9.87,3.43 -9.87,8.21 0,1.76 0.52,5.51 8,7.58 l 8,2.29 c 10.81,3 20.26,8.73 20.26,20.88 0,14.239997 -12.15,21.719997 -25.66,21.719997 -15.27,-0.04 -25.77,-9.39 -25.77,-22.069997 z"
     id="path6"
     inkscape:connector-curvature="0"
     style="fill:#cccccc" />
  <path
     class="cls-1"
     d="m 280.85393,60.777853 -29.92,72.209997 h -14.55 l 11.43,-28.37 -19.12,-43.839997 h 15 l 11.43,27.94 11.11,-27.94 z"
     id="path8"
     inkscape:connector-curvature="0"
     style="fill:#cccccc" />
  <path
     class="cls-1"
     d="m 335.51393,82.587853 v 26.599997 h -13.61 V 84.047853 c 0,-7.69 -4.57,-11.12 -9.25,-11.12 -4.88,0 -10.91,2.6 -10.91,11.43 v 24.829997 h -13.61 V 60.777853 h 13.61 v 8.1 c 2.08,-6.55 9.77,-9.35 14.55,-9.35 12.67,-0.01 19.32,8.52 19.22,23.06 z"
     id="path10"
     inkscape:connector-curvature="0"
     style="fill:#cccccc" />
  <path
     class="cls-1"
     d="m 375.93393,71.267853 h -10.28 v 37.919997 h -13.62 V 71.267853 h -8.8 v -10.49 h 8.83 v -17.77 h 13.62 v 17.77 h 10.25 z"
     id="path12"
     inkscape:connector-curvature="0"
     style="fill:#cccccc" />
  <path
     class="cls-1"
     d="m 430.91393,82.587853 v 26.599997 h -13.61 V 84.047853 c 0,-7.69 -4.57,-11.12 -9.25,-11.12 -4.88,0 -10.91,2.6 -10.91,11.43 v 24.829997 h -13.61 V 34.897853 h 13.61 v 33.46 c 2.08,-6.13 9.87,-8.83 14.55,-8.83 12.67,-0.01 19.32,8.52 19.22,23.06 z"
     id="path14"
     inkscape:connector-curvature="0"
     style="fill:#cccccc" />
  <path
     class="cls-1"
     d="m 490.08393,89.347853 h -36.57 c 1.45,5.61 6,8.720001 12.57,8.720001 4.88,0 9.77,-2.000001 12.67,-5.400001 l 8,7.999997 c -4.58,6.13 -13.1,9.46 -21.61,9.46 -14.86,0 -25.77,-10.189996 -25.77,-25.149997 0,-15.69 11.84,-25.45 25.77,-25.45 13.93,0 25.14,9.76 25.14,24.62 0.01,1.37 -0.05,3.02 -0.2,5.2 z m -13.4,-8.83 c -0.42,-5.72 -5.2,-9.15 -11.33,-9.15 -5.5,0 -10.39,2.6 -11.84,9.15 z"
     id="path16"
     inkscape:connector-curvature="0"
     style="fill:#cccccc" />
  <path
     class="cls-1"
     d="m 496.78393,93.607853 h 12.78 c 0,2.8 2.39,5.820001 7.17,5.820001 3.94,0 7,-1.67 7,-4.470001 0,-2.08 -1.66,-3.12 -5.3,-4.05 l -6.44,-1.56 c -12.47,-3.33 -14.13,-10.29 -14.13,-15.38 0,-7.48 7.79,-14.44 19,-14.44 8.83,0 19.22,4.36 19.12,15.79 h -13 c 0,-3.22 -2.7,-5 -5.92,-5 -3.22,0 -5.61,1.56 -5.61,4.06 0,2.28 2.08,3.42 4.78,4.15 l 8,2.08 c 11.63,3.12 13.09,10.39 13.09,14.34 0,10.179997 -10.39,15.169997 -20.37,15.169997 -10.2,0.01 -20.07,-5.81 -20.17,-16.509997 z"
     id="path18"
     inkscape:connector-curvature="0"
     style="fill:#cccccc" />
  <path
     class="cls-1"
     d="m 545.36393,43.737853 a 8.37,8.37 0 0 1 8.62,-8.11 c 4.78,0 8.63,3.53 8.63,8.11 a 8.64,8.64 0 0 1 -17.25,0 z m 1.87,16.83 h 13.61 v 48.409997 h -13.61 z"
     id="path20"
     inkscape:connector-curvature="0"
     style="fill:#cccccc" />
  <path
     class="cls-1"
     d="m 615.06393,70.957853 -24.21,25.35 h 24.21 v 12.669997 h -43.64 V 98.697854 l 23.69,-25.460001 h -22.24 v -12.67 h 42.19 z"
     id="path22"
     inkscape:connector-curvature="0"
     style="fill:#cccccc" />
  <path
     class="cls-1"
     d="m 673.23393,89.137853 h -36.55 c 1.45,5.61 6,8.730001 12.57,8.730001 4.88,0 9.77,-2.000001 12.67,-5.410001 l 8,7.999997 c -4.58,6.13 -13.09,9.46 -21.61,9.46 -14.86,0 -25.77,-10.179996 -25.77,-25.139997 0,-15.69 11.84,-25.46 25.77,-25.46 13.93,0 25.14,9.77 25.14,24.62 0.01,1.35 -0.1,3.02 -0.22,5.2 z m -13.4,-8.83 c -0.42,-5.72 -5.2,-9.15 -11.33,-9.15 -5.5,0 -10.39,2.6 -11.84,9.15 z"
     id="path24"
     inkscape:connector-curvature="0"
     style="fill:#cccccc" />
  <path
     class="cls-1"
     d="m 716.77393,60.877853 -3.12,13 a 14.12,14.12 0 0 0 -7,-1.77 c -7,0 -11.74,6.44 -11.74,20.26 v 16.619997 h -13.57 V 60.567853 h 13.5 v 10.28 c 2.71,-8.1 8.21,-11.53 14.24,-11.53 a 17.37,17.37 0 0 1 7.69,1.56 z"
     id="path26"
     inkscape:connector-curvature="0"
     style="fill:#cccccc" />
  <path
     class="cls-2"
     d="m 796.23393,37.397853 -21.71,71.579997 h -13 l -21.72,-71.579997 h 15 l 13.2,48.31 13.23,-48.31 z"
     id="path28"
     inkscape:connector-curvature="0"
     style="fill:#79d825" />
  <path
     class="cls-1"
     d="m 825.57393,87.887853 h 14.44 c 0.11,5.2 5.1,9.460001 11.74,9.460001 6.45,0 10.71,-3.330001 10.71,-8.420001 0,-4 -2.91,-6.75 -9,-8.62 l -8.73,-2.5 c -15.73,-4.15 -18.5,-13.61 -18.5,-20.05 0,-12.78 11,-21.3 24.72,-21.3 13.51,0 23.9,8.21 23.9,21.82 h -14.47 c 0,-5.09 -3.53,-9 -9.77,-9 -5.61,0 -9.87,3.43 -9.87,8.21 0,1.77 0.52,5.51 8,7.59 l 8,2.28 c 10.81,3 20.26,8.73 20.26,20.88 0,14.239997 -12.15,21.719997 -25.66,21.719997 -15.27,-0.04 -25.77,-9.39 -25.77,-22.069997 z"
     id="path30"
     inkscape:connector-curvature="0"
     style="fill:#cccccc" />
  <path
     class="cls-1"
     d="m 915.66393,71.057853 h -10.28 v 37.919997 h -13.61 V 71.057853 h -8.83 v -10.49 h 8.83 v -17.77 h 13.61 v 17.77 h 10.28 z"
     id="path32"
     inkscape:connector-curvature="0"
     style="fill:#cccccc" />
  <path
     class="cls-1"
     d="m 971.57393,60.567853 v 48.409997 h -13.61 v -7.89 c -2.08,6.34 -9.77,9 -14.55,9 -12.68,0 -19.33,-8.42 -19.22,-22.999997 v -26.6 h 13.61 v 25.14 c 0,7.59 4.57,11 9.25,11 4.88,0 10.91,-2.59 10.91,-11.32 v -24.74 z"
     id="path34"
     inkscape:connector-curvature="0"
     style="fill:#cccccc" />
  <path
     class="cls-1"
     d="m 1033.284,34.697853 v 74.279997 h -13.61 v -6 c -3.42,4.78 -10.18,7 -15.5801,7 -12.46997,0 -23.78997,-9.66 -23.78997,-25.249997 0,-15.59 11.32,-25.25 23.78997,-25.25 5.6101,0 12.1601,2.08 15.5801,7 v -31.78 z m -14,50 a 12.52,12.52 0 0 0 -12.5701,-12.47 12.39,12.39 0 0 0 -12.56997,12.47 12.570035,12.570035 0 1 0 25.14007,0 z"
     id="path36"
     inkscape:connector-curvature="0"
     style="fill:#cccccc" />
  <path
     class="cls-1"
     d="m 1043.604,43.737853 a 8.37,8.37 0 0 1 8.62,-8.11 c 4.78,0 8.63,3.53 8.63,8.11 a 8.64,8.64 0 0 1 -17.25,0 z m 1.87,16.83 h 13.61 v 48.409997 h -13.61 z"
     id="path38"
     inkscape:connector-curvature="0"
     style="fill:#cccccc" />
  <path
     class="cls-1"
     d="m 1067.714,84.667853 c 0,-15.38 12.26,-25.35 26.08,-25.35 13.82,0 26.08,10 26.08,25.35 0,15.349997 -12.27,25.249997 -26.08,25.249997 -13.81,0 -26.08,-9.979996 -26.08,-25.249997 z m 38.34,0 c 0,-7.58 -5.51,-12.67 -12.26,-12.67 -6.75,0 -12.26,5.09 -12.26,12.67 0,7.58 5.5,12.570001 12.26,12.570001 6.76,0 12.26,-5.090001 12.26,-12.570001 z"
     id="path40"
     inkscape:connector-curvature="0"
     style="fill:#cccccc" />
  <path
     class="cls-4"
     d="m 69.9146,113.24546 h 6.97163 a 9.6981583,9.7062469 0 0 0 9.41055,-7.38043 L 109.9727,10.000002 H 95.408217 Z"
     id="path144"
     inkscape:connector-curvature="0"
     style="letter-spacing:-0.01em;fill:#79d825;stroke-width:1.1509136" />
  <path
     class="cls-3"
     d="M 48.067859,113.24546 H 62.632353 L 88.12597,10.000002 h -6.960126 a 9.6981583,9.7062469 0 0 0 -9.422054,7.38043 z"
     id="path146"
     inkscape:connector-curvature="0"
     style="font-weight:700;font-size:72px;font-family:SofiaPro-Bold, 'Sofia Pro';fill:#cccccc;fill-opacity:1;stroke-width:1.1509136" />
  <path
     class="cls-3"
     d="M 148.05207,61.018249 137.27251,17.380432 a 9.7096625,9.7177609 0 0 0 -9.41056,-7.38043 h -6.97163 l 12.59727,51.018247 z"
     id="path148"
     inkscape:connector-curvature="0"
     style="font-weight:700;font-size:72px;font-family:SofiaPro-Bold, 'Sofia Pro';fill:#cccccc;fill-opacity:1;stroke-width:1.1509136" />
  <path
     class="cls-3"
     d="m 10,62.227211 10.768063,43.672359 a 9.6981583,9.7062469 0 0 0 9.422053,7.38043 h 6.960126 L 24.564494,62.261753 Z"
     id="path150"
     inkscape:connector-curvature="0"
     style="font-weight:700;font-size:72px;font-family:SofiaPro-Bold, 'Sofia Pro';fill:#cccccc;fill-opacity:1;stroke-width:1.1509136" />
  <path
     class="cls-3"
     d="m 115.42577,17.368922 -7.28225,29.510215 1.67963,6.747166 a 9.7211669,9.7292748 0 0 0 9.46808,7.391946 h 6.9026 z"
     id="path152"
     inkscape:connector-curvature="0"
     style="font-weight:700;font-size:72px;font-family:SofiaPro-Bold, 'Sofia Pro';fill:#cccccc;fill-opacity:1;stroke-width:1.1509136" />
  <path
     class="cls-4"
     d="M 49.897049,76.366323 48.22892,69.653699 A 9.7096625,9.7177609 0 0 0 38.795362,62.261753 H 31.892757 L 42.66082,105.93411 Z"
     id="path154"
     inkscape:connector-curvature="0"
     style="letter-spacing:-0.01em;fill:#79d825;stroke-width:1.1509136" />
</svg>
